<?xml version="1.0" encoding="utf-8"?>
<!-- Generator: Adobe Illustrator 18.1.1, SVG Export Plug-In . SVG Version: 6.00 Build 0)  -->
<!DOCTYPE svg PUBLIC "-//W3C//DTD SVG 1.1//EN" "http://www.w3.org/Graphics/SVG/1.1/DTD/svg11.dtd">
<svg version="1.1"
	 id="Layer_1" sodipodi:docname="letterhead-full.svg" inkscape:version="0.48.2 r9819" xmlns:dc="http://purl.org/dc/elements/1.1/" xmlns:rdf="http://www.w3.org/1999/02/22-rdf-syntax-ns#" xmlns:sodipodi="http://sodipodi.sourceforge.net/DTD/sodipodi-0.dtd" xmlns:svg="http://www.w3.org/2000/svg" xmlns:cc="http://creativecommons.org/ns#" xmlns:inkscape="http://www.inkscape.org/namespaces/inkscape"
	 xmlns="http://www.w3.org/2000/svg" xmlns:xlink="http://www.w3.org/1999/xlink" x="0px" y="0px" viewBox="54.2 191 416.3 130.2"
	 enable-background="new 54.2 191 416.3 130.2" xml:space="preserve">
<sodipodi:namedview  inkscape:window-width="1676" inkscape:pageopacity="0" inkscape:window-x="4" inkscape:window-height="1006" inkscape:pageshadow="2" inkscape:current-layer="Layer_1" inkscape:window-y="0" inkscape:window-maximized="1" showgrid="false" gridtolerance="10" objecttolerance="10" id="namedview107" inkscape:cy="92.043148" inkscape:zoom="2.8469321" borderopacity="1" guidetolerance="10" bordercolor="#666666" pagecolor="#ffffff" inkscape:cx="99.421342">
	</sodipodi:namedview>
<g id="g3">
	<g id="g5">
		<path id="path7" inkscape:connector-curvature="0" fill="#FEBE10" d="M91.3,279.9c0.6,0.6,1.8,0.8,2.4,0.3l33.7-16.1
			c0.8-0.3,0.8-0.8-0.1-0.9l-72.3-15.1c-0.8-0.1-0.9,0.1-0.3,0.6L91.3,279.9z"/>
	</g>
	<g id="g9">
		<path id="path11" inkscape:connector-curvature="0" fill="#FEBE10" d="M91,243.3c0,0.9,0.8,1.8,1.7,2l37.9,13.8
			c0.9,0.3,1.2,0,0.6-0.8l-43.1-66.9c-0.4-0.8-0.8-0.6-0.8,0.3C87.3,191.6,91,243.3,91,243.3z"/>
	</g>
	<g id="g13">
		<path id="path15" inkscape:connector-curvature="0" fill="#FEBE10" d="M129.2,298.2c0.8-0.1,1.4-0.9,1.7-1.7l7.2-31.4
			c0.1-0.8-0.1-0.9-0.8-0.4l-48.9,41c-0.6,0.4-0.4,0.8,0.3,0.6L129.2,298.2z"/>
	</g>
	<g id="g17">
		<path id="path19" inkscape:connector-curvature="0" fill="#FFFFFF" d="M102,236l-9.5,4.7c-0.4-0.9-1-1.8-1.8-2.3
			c-0.8-0.6-1.4-1.2-2.2-1.7c-0.8-0.4-1.7-0.8-2.4-0.9c-0.9-0.1-1.7-0.3-2.3-0.3c-0.8,0-1.4,0-2.2,0.1c-0.8,0.1-1.4,0.3-2,0.8
			c-0.6,0.3-1.2,0.9-1.4,1.4c-0.4,0.8-0.6,1.4-0.6,2.7c0,0.8,0.3,1.7,0.8,2.4c0.4,0.9,1.3,1.7,2.4,2.3c0.1,0.1,0.4,0.1,0.6,0.3
			c0.1,0.1,0.4,0.3,0.6,0.3c1,0.6,2,1,3.1,1.7s2,1,3.1,1.7c0.3,0.1,0.6,0.3,0.9,0.4c0.4,0.1,0.8,0.3,0.9,0.4
			c0.4,0.1,0.9,0.4,1.4,0.8c0.6,0.3,1,0.6,1.4,0.8c1.7,0.9,2.8,1.9,3.8,2.9c1,1,1.8,2.2,2.3,3.3c0.6,1.2,0.9,2.3,1.2,3.5
			c0.3,1.2,0.3,2.4,0.3,3.7c0,1.4-0.1,2.8-0.6,4.1c-0.1,1.3-0.8,2.7-1.7,3.8c-0.8,1.2-1.9,2.2-3.2,3.2c-1.3,1-2.9,1.9-4.9,2.7
			c-0.4,0.1-1,0.3-1.7,0.4c-0.6,0.1-1.2,0.3-1.9,0.3c-0.6,0.1-1.3,0.1-1.9,0.1c-0.8,0-1.3,0-1.8,0c-0.6,0-1,0-1.4,0
			c-0.4,0-0.8,0-1.2-0.1c-0.4,0-0.8,0-0.9-0.1c-1.2-0.1-2.3-0.4-3.7-0.9c-1.3-0.4-2.7-1-4-1.7c-1.3-0.8-2.4-1.7-3.7-2.7
			c-1.2-1-2.2-2.3-3.1-3.8c-0.1-0.3-0.3-0.6-0.4-0.9c-0.1-0.3-0.3-0.6-0.4-0.9l9.2-4.7h0.1c0.4,0.9,1,1.8,1.8,2.3
			c0.8,0.6,1.4,1.2,2.2,1.7c0.8,0.4,1.7,0.8,2.4,0.9c0.9,0.1,1.7,0.3,2.2,0.3c0.8,0,1.7,0,2.3-0.1c0.8-0.1,1.4-0.3,2-0.8
			c0.6-0.3,1.2-0.9,1.4-1.4c0.4-0.6,0.6-1.4,0.6-2.4c0-2.2-1.4-4-4.4-5.4c-0.1,0-0.4-0.1-1-0.4c-0.4-0.3-1-0.6-1.7-0.9
			c-0.6-0.3-1.2-0.6-1.9-1c-0.8-0.3-1.3-0.6-1.8-0.9c-0.1-0.1-0.4-0.3-0.9-0.4c-0.3-0.1-0.8-0.3-1-0.4c-0.4-0.3-0.9-0.4-1.4-0.8
			c-0.6-0.3-1-0.6-1.4-0.8c-1.7-0.9-2.8-1.8-3.8-2.9c-1-1-1.8-2.2-2.3-3.3c-0.6-1.2-1-2.3-1.2-3.5c-0.3-1.2-0.3-2.4-0.3-3.7
			c0-0.1,0-0.6,0-1.3c0-0.8,0.1-1.3,0.3-1.9c0-0.1,0.1-0.3,0.1-0.6c0-0.3,0.1-0.6,0.1-0.8c0.1-0.3,0.3-0.6,0.4-1s0.3-0.8,0.6-1.2
			c0.4-0.9,1-1.7,1.8-2.3c0.8-0.8,1.4-1.3,2.2-1.9c0.8-0.6,1.7-1.2,2.4-1.7c0.9-0.4,1.7-0.8,2.3-1c1.2-0.4,2.3-0.8,3.5-0.9
			c1.2-0.1,2.4-0.3,3.5-0.3c0.6,0,1,0.1,1.3,0.1c0.4,0,0.8,0,1.2,0.1c0.4,0,0.8,0,1,0c1.2,0.1,2.3,0.4,3.7,0.9c1.3,0.4,2.7,1,4,1.8
			c1.3,0.8,2.4,1.7,3.7,2.8c1.2,1,2.2,2.3,3.1,3.8c0.1,0.3,0.3,0.6,0.4,0.9C101.8,235.4,101.9,235.8,102,236L102,236z"/>
		<path id="path21" inkscape:connector-curvature="0" fill="#FFFFFF" d="M154.8,243.3c0,2.2-0.3,4.4-1,6.3s-1.7,3.7-2.9,5.2
			c-1.2,1.7-2.7,2.9-4.2,4c-1.7,1-3.3,1.9-5.2,2.3c-0.4,0.1-1,0.3-1.9,0.4c-0.9,0.1-1.7,0.3-2.2,0.3h-9v17.5H117v-54.8h20.1
			c0.3,0,0.8,0,1.3,0.1c0.4,0.1,1,0.1,1.4,0.3c0.6,0.1,1,0.3,1.4,0.3c0.4,0.1,0.8,0.1,1,0.3c1.4,0.6,2.8,1.2,4,1.9
			c1.2,0.8,2.4,1.8,3.8,3.2c0.9,1,1.8,2.2,2.4,3.5c0.8,1.3,1.2,2.4,1.7,3.7c0.3,0.9,0.4,1.8,0.6,2.7
			C154.6,241.5,154.8,242.4,154.8,243.3z M143.6,243.3c0-0.8-0.1-1.4-0.3-2.2c-0.3-0.8-0.6-1.4-1-2c-0.4-0.8-1-1.3-1.8-1.8
			c-0.8-0.6-1.4-0.9-2.4-1.2c-0.3-0.1-0.6-0.1-1-0.1s-0.6-0.1-0.6-0.1h-8.2V251h8.2c0.1,0,0.3,0,0.8-0.1c0.5-0.1,0.8-0.1,0.9-0.1
			c1.9-0.4,3.2-1.4,4.2-2.9C143.2,246.1,143.6,244.7,143.6,243.3z"/>
		<path id="path23" inkscape:connector-curvature="0" fill="#FFFFFF" d="M204.7,279.8h-12.4l-4-8.4h-18.9l-4,8.4h-12.3l25.9-55
			L204.7,279.8z"/>
		<path id="path25" inkscape:connector-curvature="0" fill="#FFFFFF" d="M250.6,279.8h-12.3l-9.5-21.1H223v21h-11.3v-54.9h20.1
			c0.3,0,0.8,0,1.2,0.1s1,0.1,1.4,0.3c0.6,0.1,1,0.3,1.4,0.3c0.4,0.1,0.8,0.3,1,0.3c1.2,0.4,2.2,1,3.3,1.8c1,0.6,2.2,1.4,3.2,2.7
			c1.2,1.3,2.2,2.7,2.8,4c0.8,1.4,1.2,2.8,1.3,4.1c0.3,1.2,0.4,2.3,0.4,3.3c0,2.4-0.6,5-1.8,7.4c-1.2,2.4-3.2,4.9-6.1,6.9
			L250.6,279.8L250.6,279.8z M236.9,241.7c0-1-0.3-2-0.8-3.1c-0.6-1-1.4-1.9-2.9-2.4c-0.3-0.1-0.6-0.1-0.9-0.3
			c-0.4,0-0.6-0.1-0.8-0.1h-8.4v11.8h8.4c0.1,0,0.3,0,0.8-0.1c0.4-0.1,0.8-0.1,0.9-0.3c1.3-0.6,2.3-1.3,2.9-2.3
			C236.5,243.7,236.9,242.7,236.9,241.7L236.9,241.7z"/>
		<path id="path27" inkscape:connector-curvature="0" fill="#FFFFFF" d="M309.1,224.8l-25,27.5l24.7,27.4h-15.1l-17.2-18.9v18.9
			h-11.3v-54.9h11.3V244l17.3-19.2H309.1L309.1,224.8z"/>
		<path id="path29" inkscape:connector-curvature="0" fill="#FFFFFF" d="M384.4,236l-9.5,4.7c-0.4-0.9-1-1.8-1.8-2.3
			c-0.8-0.6-1.4-1.2-2.2-1.7c-0.8-0.4-1.7-0.8-2.4-0.9c-0.9-0.1-1.7-0.3-2.3-0.3c-0.8,0-1.4,0-2.3,0.1c-0.8,0.1-1.4,0.3-2,0.8
			c-0.6,0.3-1.2,0.9-1.4,1.4c-0.4,0.8-0.6,1.4-0.6,2.7c0,0.8,0.3,1.7,0.8,2.4c0.4,0.9,1.3,1.7,2.4,2.3c0.1,0.1,0.4,0.1,0.6,0.3
			c0.1,0.1,0.4,0.3,0.6,0.3c1,0.6,2,1,3.1,1.7s2,1,3.1,1.7c0.3,0.1,0.6,0.3,0.9,0.4c0.4,0.1,0.8,0.3,0.9,0.4
			c0.4,0.1,0.9,0.4,1.4,0.8c0.6,0.3,1,0.6,1.4,0.8c1.4,0.9,2.8,1.9,3.8,2.9s1.8,2.2,2.3,3.3s0.9,2.3,1.2,3.5
			c0.3,1.2,0.3,2.4,0.3,3.7c0,1.4-0.1,2.8-0.6,4.1c-0.3,1.3-0.9,2.4-1.8,3.7c-0.8,1.2-1.9,2.2-3.2,3.2c-1.3,1-2.9,1.9-4.9,2.7
			c-0.4,0.1-1,0.3-1.7,0.4c-0.6,0.1-1.2,0.3-1.9,0.3c-0.6,0.1-1.3,0.1-1.9,0.1c-0.8,0-1.3,0-1.8,0c-0.6,0-1,0-1.4,0
			c-0.4,0-0.8,0-1.2-0.1c-0.4,0-0.8,0-0.9-0.1c-1.2-0.1-2.3-0.4-3.7-0.9c-1.3-0.4-2.7-1-4-1.7c-1.3-0.6-2.4-1.7-3.7-2.7
			c-1.2-1-2.2-2.3-3.1-3.8c-0.1-0.3-0.3-0.6-0.4-0.9c-0.1-0.3-0.3-0.6-0.4-0.9l9.2-4.7h0.1c0.4,0.9,1,1.8,1.8,2.3
			c0.8,0.6,1.4,1.2,2.2,1.7c0.8,0.4,1.7,0.8,2.3,0.9c0.9,0.1,1.7,0.3,2.3,0.3c0.6,0,1.7,0,2.3-0.1c0.8-0.1,1.4-0.3,2-0.8
			c0.6-0.3,1.2-0.9,1.4-1.4c0.4-0.6,0.6-1.4,0.6-2.4c0-2.2-1.4-4-4.4-5.4c-0.1,0-0.4-0.1-1-0.4c-0.4-0.3-1-0.6-1.7-0.9
			c-0.6-0.3-1.2-0.6-1.9-1c-0.8-0.3-1.3-0.6-1.8-0.9c-0.1-0.1-0.4-0.3-0.9-0.4c-0.3-0.1-0.8-0.3-1-0.4c-0.4-0.3-0.9-0.4-1.4-0.8
			s-1-0.6-1.4-0.8c-1.4-0.9-2.8-1.8-3.8-2.9c-1-1-1.8-2.2-2.3-3.3c-0.6-1.2-1-2.3-1.2-3.5c-0.3-1.2-0.3-2.4-0.3-3.7
			c0-0.1,0-0.6,0.1-1.3c0-0.8,0.1-1.3,0.3-1.9c0-0.1,0.1-0.3,0.1-0.6c0-0.3,0.1-0.6,0.1-0.8c0.1-0.3,0.3-0.6,0.4-1
			c0.1-0.4,0.3-0.8,0.6-1.2c0.4-0.9,1-1.7,1.8-2.3s1.4-1.3,2.2-1.9s1.7-1.2,2.4-1.7c0.9-0.4,1.7-0.8,2.3-1c1.2-0.4,2.3-0.8,3.5-0.9
			c1.2-0.1,2.4-0.3,3.5-0.3c0.6,0,1,0.1,1.3,0.1c0.4,0,0.8,0,1.2,0.1c0.4,0,0.8,0,1,0c1.2,0.1,2.3,0.4,3.7,0.9s2.7,1,4,1.8
			c1.3,0.8,2.4,1.7,3.7,2.8c1.2,1,2.2,2.3,3.1,3.8c0.1,0.3,0.3,0.6,0.4,0.9C384,235.4,384.1,235.8,384.4,236L384.4,236z"/>
		<path id="path31" inkscape:connector-curvature="0" fill="#FFFFFF" d="M428.2,279.7h-9.6c-0.1,0-0.3,0-0.8,0
			c-0.3,0-0.6-0.1-0.9-0.1c-0.9-0.1-1.8-0.3-2.7-0.4c-0.9-0.1-1.8-0.4-2.8-0.9c-3.3-1.2-6.1-2.8-8.4-4.9c-2.3-1.9-4.2-4.1-5.8-6.4
			c-1.4-2.3-2.7-4.9-3.2-7.3c-0.8-2.4-1-5-1-7.4c0-0.4,0-1.3,0.1-2.7c0.1-1.3,0.3-2.4,0.6-3.7c0.3-1.4,0.9-2.9,1.7-4.5
			c0.8-1.7,1.7-3.2,2.8-4.9c1-1.7,2.3-3.1,3.8-4.5c1.4-1.4,3.1-2.7,4.9-3.7c2.4-1.4,5-2.4,7.3-2.9c0.1,0,0.3,0,0.8-0.1
			c0.4-0.1,0.8-0.1,1.3-0.3c0.4-0.1,0.9-0.3,1.4-0.3c0.4,0,0.9-0.1,1.2-0.1h9.6v11.1h-9.1c-0.1,0-0.4,0-0.9,0.1
			c-0.4,0.1-0.9,0.1-1.2,0.3c-0.9,0.1-1.9,0.4-2.9,0.9c-1,0.6-2.2,1.2-3.2,1.9c-1,0.8-2,1.8-2.9,2.7c-0.9,1-1.4,2-1.9,3.1
			c-0.1,0.3-0.3,0.6-0.4,0.9c-0.1,0.3-0.3,0.6-0.4,0.9c-0.4,1.2-0.6,2-0.8,2.9c-0.1,0.8-0.1,1.7-0.1,2.7c0,1.3,0.1,2.8,0.6,4.2
			c0.3,1.4,0.9,2.9,1.8,4.2c0.8,1.3,1.8,2.7,3.1,3.8c1.3,1.2,2.8,2.2,4.7,2.9c0.1,0.1,0.6,0.3,1,0.4c0.4,0.1,0.9,0.3,1.3,0.4
			c0.4,0.1,0.9,0.3,1.3,0.3c0.4,0.1,0.9,0.1,1.2,0.1h9L428.2,279.7L428.2,279.7z"/>
	</g>
	<g id="g33">
		<path id="path35" inkscape:connector-curvature="0" fill="#FEBE10" d="M159,293c0.3-0.6,0.1-1.4-0.3-2l-15.6-17.5
			c-0.4-0.4-0.8-0.4-0.8,0.3l3.3,47c0,0.8,0.3,0.8,0.6,0.1L159,293z"/>
	</g>
	<g id="g37">
		<path id="path39" inkscape:connector-curvature="0" fill="#FEBE10" d="M179.1,282.1c-0.3-0.6-1.2-1.2-2-1.2l-18.7,1.2
			c-0.8,0-0.9,0.4-0.3,0.9l31.9,21.2c0.6,0.4,0.9,0.1,0.4-0.4C190.6,303.7,179.1,282.1,179.1,282.1z"/>
	</g>
	<g id="g41">
		<path id="path43" inkscape:connector-curvature="0" fill="#FEBE10" d="M185.2,267.6c-0.6-0.3-1.4-0.1-2,0.3l-10.1,9
			c-0.4,0.4-0.3,0.8,0.3,0.8l27.9-2c0.8,0,0.8-0.3,0.1-0.6L185.2,267.6L185.2,267.6z"/>
	</g>
	<g id="g45">
		<path id="path47" inkscape:connector-curvature="0" fill="#FEBE10" d="M179.5,257.9c-0.8,0-1.4,0.6-1.7,1.2l-3.3,8.2
			c-0.3,0.6,0,0.9,0.6,0.4l16.4-9.6c0.6-0.3,0.4-0.6-0.1-0.6L179.5,257.9L179.5,257.9z"/>
	</g>
</g>
<g enable-background="new    ">
	<path fill="#FFFFFF" d="M202.4,293.8c-0.6,0-1,0.1-1.4,0.4c-0.4,0.3-0.5,0.6-0.5,1.2s0.1,0.9,0.5,1.2c0.4,0.3,1.2,0.5,2.4,0.9
		c1.3,0.3,2.2,0.8,2.8,1.3c0.6,0.5,0.9,1.3,0.9,2.4c0,1-0.4,1.9-1.2,2.6c-0.8,0.6-1.8,1-3.1,1c-1.9,0-3.6-0.6-5-1.9l1.3-1.5
		c1.3,1,2.4,1.5,3.8,1.5c0.6,0,1.2-0.1,1.5-0.4c0.4-0.3,0.6-0.6,0.6-1.2s-0.1-0.8-0.5-1.2c-0.4-0.3-1-0.5-1.9-0.8
		c-0.9-0.3-1.5-0.4-2-0.6c-0.5-0.3-0.9-0.4-1.3-0.6c-0.8-0.5-1-1.4-1-2.4c0-1.2,0.4-1.9,1.3-2.6c0.8-0.6,1.8-0.9,3.1-0.9
		c0.8,0,1.5,0.1,2.3,0.4c0.8,0.3,1.4,0.6,1.9,1l-1.2,1.5c-0.4-0.4-0.9-0.6-1.4-0.8C203.5,293.9,202.9,293.8,202.4,293.8z"/>
	<path fill="#FFFFFF" d="M214.1,294v10.2h-2V294h-3.7v-1.9h9.3v1.9H214.1z"/>
	<path fill="#FFFFFF" d="M222.7,301.4c0.5,0.6,1.3,1,2.3,1c0.9,0,1.7-0.4,2.3-1c0.6-0.6,0.8-1.5,0.8-2.7v-6.7h2v6.8
		c0,1.8-0.5,3.1-1.4,4c-0.9,0.9-2.2,1.4-3.7,1.4s-2.7-0.5-3.7-1.4c-1-0.9-1.4-2.3-1.4-4v-6.8h2v6.7
		C222,299.9,222.2,300.8,222.7,301.4z"/>
	<path fill="#FFFFFF" d="M242.4,293.8c1.2,1,1.8,2.6,1.8,4.4s-0.5,3.3-1.7,4.5c-1.2,1.2-2.8,1.7-5.1,1.7h-4v-12h4.1
		C239.6,292.1,241.3,292.7,242.4,293.8z M242,298.2c0-2.8-1.5-4.1-4.7-4.1h-2v8.3h2.3c1.4,0,2.6-0.4,3.3-1
		C241.7,300.5,242,299.5,242,298.2z"/>
	<path fill="#FFFFFF" d="M255.2,292.1v1.9h-6.4v3.2h5.8v1.8h-5.8v3.2h6.7v1.9h-8.7v-12H255.2z"/>
	<path fill="#FFFFFF" d="M267.1,292.1h2v12H267l-6.8-8.8v8.8h-2v-12h2l7,9v-9H267.1z"/>
	<path fill="#FFFFFF" d="M277.1,294v10.2h-2V294h-3.7v-1.9h9.3v1.9H277.1z"/>
	<path fill="#FFFFFF" d="M287.7,292.1h2v12h-2V292.1z"/>
	<path fill="#FFFFFF" d="M302.2,292.1h2v12h-2.2l-6.8-8.8v8.8h-2.2v-12h2l7,9V292.1z"/>
	<path fill="#FFFFFF" d="M316.5,292.1h2v12h-2.2l-6.8-8.8v8.8h-2v-12h2l7,9v-9H316.5z"/>
	<path fill="#FFFFFF" d="M332.2,302.6c-1.3,1.2-2.7,1.8-4.5,1.8s-3.3-0.6-4.5-1.8c-1.2-1.2-1.8-2.7-1.8-4.5s0.6-3.3,1.8-4.5
		c1.2-1.2,2.7-1.8,4.5-1.8s3.3,0.6,4.5,1.8c1.2,1.2,1.8,2.7,1.8,4.5S333.3,301.3,332.2,302.6z M330.6,295c-0.8-0.9-1.8-1.3-3.1-1.3
		c-1.2,0-2.2,0.4-3.1,1.3s-1.3,1.9-1.3,3.1c0,1.3,0.4,2.3,1.3,3.1c0.9,0.8,1.8,1.3,3.1,1.3c1.2,0,2.2-0.4,3.1-1.3
		c0.9-0.9,1.3-1.9,1.3-3.1C331.9,296.8,331.4,295.8,330.6,295z"/>
	<path fill="#FFFFFF" d="M341.8,304.3h-2.3l-4.9-12h2.3l3.7,9l3.7-9h2.3L341.8,304.3z"/>
	<path fill="#FFFFFF" d="M349.4,301.4l-1.2,2.7h-2.2l5.4-12h2.2l5.4,12h-2.2l-1.2-2.7H349.4z M354.7,299.6l-2.2-5l-2.2,5H354.7z"/>
	<path fill="#FFFFFF" d="M364.2,294v10.2h-2V294h-3.7v-1.9h9.3v1.9H364.2z"/>
	<path fill="#FFFFFF" d="M370,292.1h2v12h-2V292.1z"/>
	<path fill="#FFFFFF" d="M385.5,302.6c-1.3,1.2-2.7,1.8-4.5,1.8s-3.3-0.6-4.5-1.8c-1.2-1.2-1.8-2.7-1.8-4.5s0.6-3.3,1.8-4.5
		c1.2-1.2,2.7-1.8,4.5-1.8s3.3,0.6,4.5,1.8c1.2,1.2,1.8,2.7,1.8,4.5S386.7,301.3,385.5,302.6z M384,295c-0.8-0.9-1.8-1.3-3.1-1.3
		c-1.2,0-2.2,0.4-3.1,1.3c-0.9,0.9-1.3,1.9-1.3,3.1c0,1.3,0.4,2.3,1.3,3.1c0.9,0.8,1.8,1.3,3.1,1.3c1.2,0,2.2-0.4,3.1-1.3
		c0.9-0.9,1.3-1.9,1.3-3.1C385.3,296.8,384.9,295.8,384,295z"/>
	<path fill="#FFFFFF" d="M399,292.1h2v12h-2.2l-6.8-8.8v8.8h-2v-12h2l7,9v-9H399z"/>
	<path fill="#FFFFFF" d="M410.8,301.4l-1.2,2.7h-2.2l5.4-12h2.2l5.4,12h-2.2l-1.2-2.7H410.8z M416,299.6l-2.2-5l-2.2,5H416z"/>
	<path fill="#FFFFFF" d="M425.5,294v10.2h-2V294h-3.6v-1.9h9.3v1.9H425.5z"/>
	<path fill="#FFFFFF" d="M438.9,301.4c0.5,0.6,1.3,1,2.3,1c0.9,0,1.7-0.4,2.3-1c0.5-0.6,0.8-1.5,0.8-2.7v-6.7h2v6.8
		c0,1.8-0.5,3.1-1.4,4c-0.9,0.9-2.2,1.4-3.7,1.4s-2.7-0.5-3.7-1.4c-1-0.9-1.4-2.3-1.4-4v-6.8h2v6.7
		C438,299.9,438.3,300.8,438.9,301.4z"/>
	<path fill="#FFFFFF" d="M453.1,293.8c-0.6,0-1,0.1-1.4,0.4c-0.4,0.3-0.5,0.6-0.5,1.2s0.1,0.9,0.5,1.2c0.4,0.3,1.2,0.5,2.4,0.9
		c1.3,0.3,2.2,0.8,2.8,1.3c0.6,0.5,0.9,1.3,0.9,2.4c0,1-0.4,1.9-1.2,2.6c-0.8,0.6-1.8,1-3.1,1c-1.9,0-3.6-0.6-5-1.9l1.3-1.5
		c1.3,1,2.4,1.5,3.8,1.5c0.6,0,1.2-0.1,1.5-0.4c0.4-0.3,0.6-0.6,0.6-1.2s-0.1-0.8-0.5-1.2c-0.4-0.3-1-0.5-1.9-0.8
		c-0.9-0.3-1.5-0.4-2-0.6c-0.5-0.1-0.9-0.4-1.3-0.6c-0.8-0.5-1-1.4-1-2.4c0-1.2,0.4-1.9,1.3-2.6c0.8-0.6,1.8-0.9,3.1-0.9
		c0.8,0,1.5,0.1,2.3,0.4c0.8,0.3,1.4,0.6,1.9,1l-1,1.5c-0.4-0.4-0.9-0.6-1.4-0.8C454.3,293.9,453.6,293.8,453.1,293.8z"/>
	<path fill="#FFFFFF" d="M465.8,302.3c0.6,0,1.3-0.1,1.8-0.4c0.5-0.3,1-0.6,1.5-1.2l1.3,1.4c-1.3,1.4-2.8,2.2-4.6,2.2
		s-3.3-0.6-4.6-1.8c-1.3-1.2-1.8-2.7-1.8-4.5s0.6-3.3,1.8-4.5c1.3-1.2,2.8-1.8,4.6-1.8c1.9,0,3.5,0.6,4.7,2l-1.3,1.4
		c-0.6-0.5-1.2-0.9-1.7-1.2c-0.5-0.3-1.2-0.4-1.8-0.4c-1.3,0-2.3,0.4-3.1,1.2c-0.8,0.8-1.3,1.8-1.3,3.1s0.4,2.3,1.3,3.1
		C463.7,302,464.6,302.3,465.8,302.3z"/>
</g>
</svg>
