<?xml version="1.0" encoding="utf-8"?>
<!-- Generator: Adobe Illustrator 19.0.0, SVG Export Plug-In . SVG Version: 6.00 Build 0)  -->
<svg version="1.1" id="Layer_1" xmlns="http://www.w3.org/2000/svg" xmlns:xlink="http://www.w3.org/1999/xlink" x="0px" y="0px"
	 viewBox="-485 480.9 51.6 64.1" style="enable-background:new -485 480.9 51.6 64.1;" xml:space="preserve">
<style type="text/css">
	.st0{fill:#FFFFFF;}
	.st1{fill:none;stroke:#FFFFFF;stroke-width:0.7824;stroke-miterlimit:10;}
</style>
<g>
	<g>
		<path class="st0" d="M-466.7,499.2c-0.1,0.3,0,0.7,0.3,0.9l10.8,9.4c0.2,0.2,0.4,0.1,0.3-0.2l-5.7-27.8c-0.1-0.3-0.2-0.3-0.3,0
			L-466.7,499.2z"/>
		<path class="st1" d="M-466.7,499.2c-0.1,0.3,0,0.7,0.3,0.9l10.8,9.4c0.2,0.2,0.4,0.1,0.3-0.2l-5.7-27.8c-0.1-0.3-0.2-0.3-0.3,0
			L-466.7,499.2z"/>
	</g>
	<g>
		<path class="st0" d="M-473.7,514c0.2,0.3,0.6,0.4,0.9,0.3l14.1-2.9c0.3-0.1,0.3-0.2,0-0.4l-25.6-12.1c-0.3-0.1-0.4,0-0.2,0.2
			L-473.7,514z"/>
		<path class="st1" d="M-473.7,514c0.2,0.3,0.6,0.4,0.9,0.3l14.1-2.9c0.3-0.1,0.3-0.2,0-0.4l-25.6-12.1c-0.3-0.1-0.4,0-0.2,0.2
			L-473.7,514z"/>
	</g>
	<g>
		<path class="st0" d="M-464.5,528.1c0.3,0,0.6-0.3,0.7-0.6l4.2-12.6c0.1-0.3,0-0.4-0.3-0.2l-21.5,14.9c-0.3,0.2-0.2,0.3,0.1,0.3
			L-464.5,528.1z"/>
		<path class="st1" d="M-464.5,528.1c0.3,0,0.6-0.3,0.7-0.6l4.2-12.6c0.1-0.3,0-0.4-0.3-0.2l-21.5,14.9c-0.3,0.2-0.2,0.3,0.1,0.3
			L-464.5,528.1z"/>
	</g>
	<g>
		<path class="st0" d="M-450,531.5c0.1-0.3,0.1-0.7-0.1-0.9l-7.2-8.2c-0.2-0.2-0.4-0.2-0.3,0.1l1.6,21.8c0,0.3,0.1,0.3,0.3,0
			L-450,531.5z"/>
		<path class="st1" d="M-450,531.5c0.1-0.3,0.1-0.7-0.1-0.9l-7.2-8.2c-0.2-0.2-0.4-0.2-0.3,0.1l1.6,21.8c0,0.3,0.1,0.3,0.3,0
			L-450,531.5z"/>
	</g>
	<g>
		<path class="st0" d="M-440.3,525.8c-0.1-0.3-0.5-0.5-0.8-0.5l-7.9,0.5c-0.3,0-0.4,0.2-0.1,0.3l13.3,8.8c0.3,0.2,0.4,0.1,0.2-0.2
			L-440.3,525.8z"/>
		<path class="st1" d="M-440.3,525.8c-0.1-0.3-0.5-0.5-0.8-0.5l-7.9,0.5c-0.3,0-0.4,0.2-0.1,0.3l13.3,8.8c0.3,0.2,0.4,0.1,0.2-0.2
			L-440.3,525.8z"/>
	</g>
	<g>
		<path class="st0" d="M-442.2,515.8c-0.3,0-0.7,0.2-0.8,0.5l-3,5.5c-0.1,0.3,0,0.4,0.2,0.3l11.8-5.5c0.3-0.1,0.3-0.3-0.1-0.3
			L-442.2,515.8z"/>
		<path class="st1" d="M-442.2,515.8c-0.3,0-0.7,0.2-0.8,0.5l-3,5.5c-0.1,0.3,0,0.4,0.2,0.3l11.8-5.5c0.3-0.1,0.3-0.3-0.1-0.3
			L-442.2,515.8z"/>
	</g>
	<g>
		<path class="st0" d="M-444,509.3c-0.3,0.1-0.6,0.4-0.7,0.7l-0.9,4c-0.1,0.3,0.1,0.4,0.3,0.2l6.8-5.6c0.2-0.2,0.2-0.3-0.1-0.3
			L-444,509.3z"/>
		<path class="st1" d="M-444,509.3c-0.3,0.1-0.6,0.4-0.7,0.7l-0.9,4c-0.1,0.3,0.1,0.4,0.3,0.2l6.8-5.6c0.2-0.2,0.2-0.3-0.1-0.3
			L-444,509.3z"/>
	</g>
</g>
</svg>
